<?xml version="1.0" encoding="UTF-8" standalone="no"?>
<!DOCTYPE svg PUBLIC "-//W3C//DTD SVG 1.1//EN"
 "http://www.w3.org/Graphics/SVG/1.1/DTD/svg11.dtd">
<!-- Generated by graphviz version 12.2.1 (20241206.2353)
 -->
<!-- Pages: 1 -->
<svg width="3075pt" height="372pt"
 viewBox="0.00 0.00 3074.78 371.50" xmlns="http://www.w3.org/2000/svg" xmlns:xlink="http://www.w3.org/1999/xlink">
<g id="graph0" class="graph" transform="scale(1 1) rotate(0) translate(4 367.5)">
<polygon fill="white" stroke="none" points="-4,4 -4,-367.5 3070.78,-367.5 3070.78,4 -4,4"/>
<!-- 1559646343184 -->
<g id="node1" class="node">
<title>1559646343184</title>
<polygon fill="white" stroke="black" points="1579.49,-110.5 1579.49,-146.5 1796.24,-146.5 1796.24,-110.5 1579.49,-110.5"/>
<text text-anchor="middle" x="1602.87" y="-123.7" font-family="Times New Roman,serif" font-size="14.00">Value</text>
<polyline fill="none" stroke="black" points="1626.24,-111 1626.24,-146.5"/>
<text text-anchor="middle" x="1668.37" y="-123.7" font-family="Times New Roman,serif" font-size="14.00">data=2.4257</text>
<polyline fill="none" stroke="black" points="1710.49,-111 1710.49,-146.5"/>
<text text-anchor="middle" x="1753.37" y="-123.7" font-family="Times New Roman,serif" font-size="14.00">grad=0.1608</text>
</g>
<!-- 1559703323856* -->
<g id="node27" class="node">
<title>1559703323856*</title>
<ellipse fill="none" stroke="black" cx="1895.58" cy="-127.5" rx="18" ry="18"/>
<text text-anchor="middle" x="1895.58" y="-122.45" font-family="Times New Roman,serif" font-size="14.00">*</text>
</g>
<!-- 1559646343184&#45;&gt;1559703323856* -->
<g id="edge18" class="edge">
<title>1559646343184&#45;&gt;1559703323856*</title>
<path fill="none" stroke="black" d="M1796.54,-127.98C1822.26,-127.85 1847.57,-127.73 1866.03,-127.64"/>
<polygon fill="black" stroke="black" points="1865.88,-131.14 1875.86,-127.59 1865.84,-124.14 1865.88,-131.14"/>
</g>
<!-- 1559646343184ReLU -->
<g id="node2" class="node">
<title>1559646343184ReLU</title>
<ellipse fill="none" stroke="black" cx="1464.72" cy="-128.5" rx="33.44" ry="33.44"/>
<text text-anchor="middle" x="1464.72" y="-123.45" font-family="Times New Roman,serif" font-size="14.00">ReLU</text>
</g>
<!-- 1559646343184ReLU&#45;&gt;1559646343184 -->
<g id="edge1" class="edge">
<title>1559646343184ReLU&#45;&gt;1559646343184</title>
<path fill="none" stroke="black" d="M1498.35,-128.5C1517.19,-128.5 1542.17,-128.5 1567.76,-128.5"/>
<polygon fill="black" stroke="black" points="1567.63,-132 1577.63,-128.5 1567.63,-125 1567.63,-132"/>
</g>
<!-- 1559703416864 -->
<g id="node3" class="node">
<title>1559703416864</title>
<ellipse fill="lightblue" stroke="black" cx="1687.87" cy="-73.5" rx="153.71" ry="18"/>
<text text-anchor="middle" x="1687.87" y="-68.45" font-family="Times New Roman,serif" font-size="14.00">{weight | data=0.1608 | grad=2.4257}</text>
</g>
<!-- 1559703416864&#45;&gt;1559703323856* -->
<g id="edge39" class="edge">
<title>1559703416864&#45;&gt;1559703323856*</title>
<path fill="none" stroke="black" d="M1787.63,-87.5C1805.8,-91.23 1824.43,-95.84 1841.58,-101.5 1851.02,-104.62 1860.92,-109.11 1869.57,-113.48"/>
<polygon fill="black" stroke="black" points="1867.92,-116.57 1878.4,-118.14 1871.19,-110.37 1867.92,-116.57"/>
</g>
<!-- 1559703971920 -->
<g id="node4" class="node">
<title>1559703971920</title>
<polygon fill="white" stroke="black" points="2272.53,-218.5 2272.53,-254.5 2489.28,-254.5 2489.28,-218.5 2272.53,-218.5"/>
<text text-anchor="middle" x="2295.91" y="-231.7" font-family="Times New Roman,serif" font-size="14.00">Value</text>
<polyline fill="none" stroke="black" points="2319.28,-219 2319.28,-254.5"/>
<text text-anchor="middle" x="2361.41" y="-231.7" font-family="Times New Roman,serif" font-size="14.00">data=0.2033</text>
<polyline fill="none" stroke="black" points="2403.53,-219 2403.53,-254.5"/>
<text text-anchor="middle" x="2446.41" y="-231.7" font-family="Times New Roman,serif" font-size="14.00">grad=1.0000</text>
</g>
<!-- 1559703972048+ -->
<g id="node7" class="node">
<title>1559703972048+</title>
<ellipse fill="none" stroke="black" cx="2796.03" cy="-208.5" rx="18" ry="18"/>
<text text-anchor="middle" x="2796.03" y="-203.45" font-family="Times New Roman,serif" font-size="14.00">+</text>
</g>
<!-- 1559703971920&#45;&gt;1559703972048+ -->
<g id="edge17" class="edge">
<title>1559703971920&#45;&gt;1559703972048+</title>
<path fill="none" stroke="black" d="M2489.52,-230.48C2561.12,-226.27 2657.25,-220.2 2742.03,-213.5 2749.99,-212.87 2758.6,-212.1 2766.53,-211.35"/>
<polygon fill="black" stroke="black" points="2766.74,-214.85 2776.35,-210.4 2766.06,-207.88 2766.74,-214.85"/>
</g>
<!-- 1559703971920* -->
<g id="node5" class="node">
<title>1559703971920*</title>
<ellipse fill="none" stroke="black" cx="1895.58" cy="-236.5" rx="18" ry="18"/>
<text text-anchor="middle" x="1895.58" y="-231.45" font-family="Times New Roman,serif" font-size="14.00">*</text>
</g>
<!-- 1559703971920*&#45;&gt;1559703971920 -->
<g id="edge2" class="edge">
<title>1559703971920*&#45;&gt;1559703971920</title>
<path fill="none" stroke="black" d="M1914.07,-236.5C1969.07,-236.5 2141.96,-236.5 2260.91,-236.5"/>
<polygon fill="black" stroke="black" points="2260.73,-240 2270.73,-236.5 2260.73,-233 2260.73,-240"/>
</g>
<!-- 1559703972048 -->
<g id="node6" class="node">
<title>1559703972048</title>
<polygon fill="white" stroke="black" points="2850.03,-190.5 2850.03,-226.5 3066.78,-226.5 3066.78,-190.5 2850.03,-190.5"/>
<text text-anchor="middle" x="2873.41" y="-203.7" font-family="Times New Roman,serif" font-size="14.00">Value</text>
<polyline fill="none" stroke="black" points="2896.78,-191 2896.78,-226.5"/>
<text text-anchor="middle" x="2938.91" y="-203.7" font-family="Times New Roman,serif" font-size="14.00">data=0.5934</text>
<polyline fill="none" stroke="black" points="2981.03,-191 2981.03,-226.5"/>
<text text-anchor="middle" x="3023.91" y="-203.7" font-family="Times New Roman,serif" font-size="14.00">grad=1.0000</text>
</g>
<!-- 1559703972048+&#45;&gt;1559703972048 -->
<g id="edge3" class="edge">
<title>1559703972048+&#45;&gt;1559703972048</title>
<path fill="none" stroke="black" d="M2814.5,-208.5C2821.14,-208.5 2829.3,-208.5 2838.33,-208.5"/>
<polygon fill="black" stroke="black" points="2838.22,-212 2848.22,-208.5 2838.22,-205 2838.22,-212"/>
</g>
<!-- 1559689605392 -->
<g id="node8" class="node">
<title>1559689605392</title>
<polygon fill="lightyellow" stroke="black" points="694.05,-309.5 468.8,-309.5 468.8,-273.5 694.05,-273.5 694.05,-309.5"/>
<text text-anchor="middle" x="581.42" y="-286.45" font-family="Times New Roman,serif" font-size="14.00">{input | data=&#45;2.0000 | grad=&#45;0.3140}</text>
</g>
<!-- 1559703398768* -->
<g id="node13" class="node">
<title>1559703398768*</title>
<ellipse fill="none" stroke="black" cx="795.28" cy="-128.5" rx="18" ry="18"/>
<text text-anchor="middle" x="795.28" y="-123.45" font-family="Times New Roman,serif" font-size="14.00">*</text>
</g>
<!-- 1559689605392&#45;&gt;1559703398768* -->
<g id="edge36" class="edge">
<title>1559689605392&#45;&gt;1559703398768*</title>
<path fill="none" stroke="black" d="M694.26,-287.47C711.32,-282.81 727.72,-275.55 741.28,-264.5 758.43,-250.52 776.84,-192.35 786.81,-156.77"/>
<polygon fill="black" stroke="black" points="790.07,-158.12 789.34,-147.55 783.32,-156.27 790.07,-158.12"/>
</g>
<!-- 1559703038880* -->
<g id="node23" class="node">
<title>1559703038880*</title>
<ellipse fill="none" stroke="black" cx="795.28" cy="-291.5" rx="18" ry="18"/>
<text text-anchor="middle" x="795.28" y="-286.45" font-family="Times New Roman,serif" font-size="14.00">*</text>
</g>
<!-- 1559689605392&#45;&gt;1559703038880* -->
<g id="edge27" class="edge">
<title>1559689605392&#45;&gt;1559703038880*</title>
<path fill="none" stroke="black" d="M694.24,-291.5C720.84,-291.5 746.95,-291.5 765.82,-291.5"/>
<polygon fill="black" stroke="black" points="765.59,-295 775.59,-291.5 765.59,-288 765.59,-295"/>
</g>
<!-- 1559703417136 -->
<g id="node9" class="node">
<title>1559703417136</title>
<ellipse fill="lightblue" stroke="black" cx="1687.87" cy="-291.5" rx="153.71" ry="18"/>
<text text-anchor="middle" x="1687.87" y="-286.45" font-family="Times New Roman,serif" font-size="14.00">{weight | data=0.2955 | grad=0.6880}</text>
</g>
<!-- 1559703417136&#45;&gt;1559703971920* -->
<g id="edge15" class="edge">
<title>1559703417136&#45;&gt;1559703971920*</title>
<path fill="none" stroke="black" d="M1791.44,-277.9C1808.42,-274.36 1825.66,-269.96 1841.58,-264.5 1851.24,-261.19 1861.28,-256.3 1869.99,-251.53"/>
<polygon fill="black" stroke="black" points="1871.59,-254.65 1878.52,-246.64 1868.11,-248.58 1871.59,-254.65"/>
</g>
<!-- 1559703279952 -->
<g id="node10" class="node">
<title>1559703279952</title>
<polygon fill="lightyellow" stroke="black" points="267.16,-132.5 46.41,-132.5 46.41,-96.5 267.16,-96.5 267.16,-132.5"/>
<text text-anchor="middle" x="156.78" y="-109.45" font-family="Times New Roman,serif" font-size="14.00">{input | data=1.0000 | grad=&#45;0.0345}</text>
</g>
<!-- 1559646343568* -->
<g id="node15" class="node">
<title>1559646343568*</title>
<ellipse fill="none" stroke="black" cx="367.57" cy="-175.5" rx="18" ry="18"/>
<text text-anchor="middle" x="367.57" y="-170.45" font-family="Times New Roman,serif" font-size="14.00">*</text>
</g>
<!-- 1559703279952&#45;&gt;1559646343568* -->
<g id="edge38" class="edge">
<title>1559703279952&#45;&gt;1559646343568*</title>
<path fill="none" stroke="black" d="M260.24,-132.93C278.24,-137.28 296.62,-142.45 313.57,-148.5 323.11,-151.91 333.12,-156.67 341.84,-161.25"/>
<polygon fill="black" stroke="black" points="339.94,-164.19 350.39,-165.91 343.29,-158.05 339.94,-164.19"/>
</g>
<!-- 1559702998144* -->
<g id="node25" class="node">
<title>1559702998144*</title>
<ellipse fill="none" stroke="black" cx="367.57" cy="-46.5" rx="18" ry="18"/>
<text text-anchor="middle" x="367.57" y="-41.45" font-family="Times New Roman,serif" font-size="14.00">*</text>
</g>
<!-- 1559703279952&#45;&gt;1559702998144* -->
<g id="edge26" class="edge">
<title>1559703279952&#45;&gt;1559702998144*</title>
<path fill="none" stroke="black" d="M241.29,-96.03C264.98,-89.85 290.57,-82.27 313.57,-73.5 323.03,-69.89 333.03,-65.08 341.76,-60.52"/>
<polygon fill="black" stroke="black" points="343.18,-63.73 350.32,-55.9 339.86,-57.57 343.18,-63.73"/>
</g>
<!-- 1559702829392 -->
<g id="node11" class="node">
<title>1559702829392</title>
<ellipse fill="lightblue" stroke="black" cx="156.78" cy="-175.5" rx="156.78" ry="18"/>
<text text-anchor="middle" x="156.78" y="-170.45" font-family="Times New Roman,serif" font-size="14.00">{weight | data=&#45;0.4517 | grad=0.2955}</text>
</g>
<!-- 1559702829392&#45;&gt;1559646343568* -->
<g id="edge22" class="edge">
<title>1559702829392&#45;&gt;1559646343568*</title>
<path fill="none" stroke="black" d="M313.88,-175.5C322.69,-175.5 330.85,-175.5 337.98,-175.5"/>
<polygon fill="black" stroke="black" points="337.77,-179 347.77,-175.5 337.77,-172 337.77,-179"/>
</g>
<!-- 1559703398768 -->
<g id="node12" class="node">
<title>1559703398768</title>
<polygon fill="white" stroke="black" points="851.53,-110.5 851.53,-146.5 1068.28,-146.5 1068.28,-110.5 851.53,-110.5"/>
<text text-anchor="middle" x="874.9" y="-123.7" font-family="Times New Roman,serif" font-size="14.00">Value</text>
<polyline fill="none" stroke="black" points="898.28,-111 898.28,-146.5"/>
<text text-anchor="middle" x="940.4" y="-123.7" font-family="Times New Roman,serif" font-size="14.00">data=1.8104</text>
<polyline fill="none" stroke="black" points="982.53,-111 982.53,-146.5"/>
<text text-anchor="middle" x="1025.4" y="-123.7" font-family="Times New Roman,serif" font-size="14.00">grad=0.1608</text>
</g>
<!-- 1559703710352+ -->
<g id="node20" class="node">
<title>1559703710352+</title>
<ellipse fill="none" stroke="black" cx="1124.53" cy="-128.5" rx="18" ry="18"/>
<text text-anchor="middle" x="1124.53" y="-123.45" font-family="Times New Roman,serif" font-size="14.00">+</text>
</g>
<!-- 1559703398768&#45;&gt;1559703710352+ -->
<g id="edge19" class="edge">
<title>1559703398768&#45;&gt;1559703710352+</title>
<path fill="none" stroke="black" d="M1068.47,-128.5C1078.08,-128.5 1087.15,-128.5 1095.04,-128.5"/>
<polygon fill="black" stroke="black" points="1094.88,-132 1104.88,-128.5 1094.88,-125 1094.88,-132"/>
</g>
<!-- 1559703398768*&#45;&gt;1559703398768 -->
<g id="edge4" class="edge">
<title>1559703398768*&#45;&gt;1559703398768</title>
<path fill="none" stroke="black" d="M813.68,-128.5C820.9,-128.5 829.94,-128.5 839.95,-128.5"/>
<polygon fill="black" stroke="black" points="839.65,-132 849.65,-128.5 839.65,-125 839.65,-132"/>
</g>
<!-- 1559646343568 -->
<g id="node14" class="node">
<title>1559646343568</title>
<polygon fill="white" stroke="black" points="470.8,-164.5 470.8,-200.5 692.05,-200.5 692.05,-164.5 470.8,-164.5"/>
<text text-anchor="middle" x="494.17" y="-177.7" font-family="Times New Roman,serif" font-size="14.00">Value</text>
<polyline fill="none" stroke="black" points="517.55,-165 517.55,-200.5"/>
<text text-anchor="middle" x="561.92" y="-177.7" font-family="Times New Roman,serif" font-size="14.00">data=&#45;0.4517</text>
<polyline fill="none" stroke="black" points="606.3,-165 606.3,-200.5"/>
<text text-anchor="middle" x="649.17" y="-177.7" font-family="Times New Roman,serif" font-size="14.00">grad=0.2955</text>
</g>
<!-- 1559688849280+ -->
<g id="node34" class="node">
<title>1559688849280+</title>
<ellipse fill="none" stroke="black" cx="795.28" cy="-236.5" rx="18" ry="18"/>
<text text-anchor="middle" x="795.28" y="-231.45" font-family="Times New Roman,serif" font-size="14.00">+</text>
</g>
<!-- 1559646343568&#45;&gt;1559688849280+ -->
<g id="edge20" class="edge">
<title>1559646343568&#45;&gt;1559688849280+</title>
<path fill="none" stroke="black" d="M692.37,-197.71C708.95,-201.2 725.7,-205.42 741.28,-210.5 750.73,-213.58 760.63,-218.06 769.28,-222.44"/>
<polygon fill="black" stroke="black" points="767.63,-225.53 778.11,-227.11 770.91,-219.34 767.63,-225.53"/>
</g>
<!-- 1559646343568*&#45;&gt;1559646343568 -->
<g id="edge5" class="edge">
<title>1559646343568*&#45;&gt;1559646343568</title>
<path fill="none" stroke="black" d="M385.9,-176.07C402.86,-176.63 430.3,-177.54 459.29,-178.5"/>
<polygon fill="black" stroke="black" points="458.83,-181.98 468.94,-178.82 459.06,-174.99 458.83,-181.98"/>
</g>
<!-- 1559703919088 -->
<g id="node16" class="node">
<title>1559703919088</title>
<polygon fill="white" stroke="black" points="1178.53,-218.5 1178.53,-254.5 1395.28,-254.5 1395.28,-218.5 1178.53,-218.5"/>
<text text-anchor="middle" x="1201.9" y="-231.7" font-family="Times New Roman,serif" font-size="14.00">Value</text>
<polyline fill="none" stroke="black" points="1225.28,-219 1225.28,-254.5"/>
<text text-anchor="middle" x="1267.4" y="-231.7" font-family="Times New Roman,serif" font-size="14.00">data=0.6880</text>
<polyline fill="none" stroke="black" points="1309.53,-219 1309.53,-254.5"/>
<text text-anchor="middle" x="1352.4" y="-231.7" font-family="Times New Roman,serif" font-size="14.00">grad=0.2955</text>
</g>
<!-- 1559703918128ReLU -->
<g id="node30" class="node">
<title>1559703918128ReLU</title>
<ellipse fill="none" stroke="black" cx="1464.72" cy="-236.5" rx="33.44" ry="33.44"/>
<text text-anchor="middle" x="1464.72" y="-231.45" font-family="Times New Roman,serif" font-size="14.00">ReLU</text>
</g>
<!-- 1559703919088&#45;&gt;1559703918128ReLU -->
<g id="edge37" class="edge">
<title>1559703919088&#45;&gt;1559703918128ReLU</title>
<path fill="none" stroke="black" d="M1395.74,-236.5C1404.04,-236.5 1412.1,-236.5 1419.58,-236.5"/>
<polygon fill="black" stroke="black" points="1419.31,-240 1429.31,-236.5 1419.31,-233 1419.31,-240"/>
</g>
<!-- 1559703919088+ -->
<g id="node17" class="node">
<title>1559703919088+</title>
<ellipse fill="none" stroke="black" cx="1124.53" cy="-236.5" rx="18" ry="18"/>
<text text-anchor="middle" x="1124.53" y="-231.45" font-family="Times New Roman,serif" font-size="14.00">+</text>
</g>
<!-- 1559703919088+&#45;&gt;1559703919088 -->
<g id="edge6" class="edge">
<title>1559703919088+&#45;&gt;1559703919088</title>
<path fill="none" stroke="black" d="M1143,-236.5C1149.63,-236.5 1157.79,-236.5 1166.82,-236.5"/>
<polygon fill="black" stroke="black" points="1166.71,-240 1176.71,-236.5 1166.71,-233 1166.71,-240"/>
</g>
<!-- 1559702829696 -->
<g id="node18" class="node">
<title>1559702829696</title>
<ellipse fill="lightblue" stroke="black" cx="581.42" cy="-345.5" rx="159.85" ry="18"/>
<text text-anchor="middle" x="581.42" y="-340.45" font-family="Times New Roman,serif" font-size="14.00">{weight | data=&#45;0.5699 | grad=&#45;0.5910}</text>
</g>
<!-- 1559702829696&#45;&gt;1559703038880* -->
<g id="edge33" class="edge">
<title>1559702829696&#45;&gt;1559703038880*</title>
<path fill="none" stroke="black" d="M689.47,-331.88C707,-328.35 724.81,-323.95 741.28,-318.5 750.9,-315.32 760.93,-310.61 769.64,-306.01"/>
<polygon fill="black" stroke="black" points="771.11,-309.19 778.17,-301.3 767.73,-303.07 771.11,-309.19"/>
</g>
<!-- 1559703710352 -->
<g id="node19" class="node">
<title>1559703710352</title>
<polygon fill="white" stroke="black" points="1178.53,-110.5 1178.53,-146.5 1395.28,-146.5 1395.28,-110.5 1178.53,-110.5"/>
<text text-anchor="middle" x="1201.9" y="-123.7" font-family="Times New Roman,serif" font-size="14.00">Value</text>
<polyline fill="none" stroke="black" points="1225.28,-111 1225.28,-146.5"/>
<text text-anchor="middle" x="1267.4" y="-123.7" font-family="Times New Roman,serif" font-size="14.00">data=2.4257</text>
<polyline fill="none" stroke="black" points="1309.53,-111 1309.53,-146.5"/>
<text text-anchor="middle" x="1352.4" y="-123.7" font-family="Times New Roman,serif" font-size="14.00">grad=0.1608</text>
</g>
<!-- 1559703710352&#45;&gt;1559646343184ReLU -->
<g id="edge24" class="edge">
<title>1559703710352&#45;&gt;1559646343184ReLU</title>
<path fill="none" stroke="black" d="M1395.74,-128.5C1404.04,-128.5 1412.1,-128.5 1419.58,-128.5"/>
<polygon fill="black" stroke="black" points="1419.31,-132 1429.31,-128.5 1419.31,-125 1419.31,-132"/>
</g>
<!-- 1559703710352+&#45;&gt;1559703710352 -->
<g id="edge7" class="edge">
<title>1559703710352+&#45;&gt;1559703710352</title>
<path fill="none" stroke="black" d="M1143,-128.5C1149.63,-128.5 1157.79,-128.5 1166.82,-128.5"/>
<polygon fill="black" stroke="black" points="1166.71,-132 1176.71,-128.5 1166.71,-125 1166.71,-132"/>
</g>
<!-- 1559703931600 -->
<g id="node21" class="node">
<title>1559703931600</title>
<ellipse fill="lightblue" stroke="black" cx="156.78" cy="-46.5" rx="153.71" ry="18"/>
<text text-anchor="middle" x="156.78" y="-41.45" font-family="Times New Roman,serif" font-size="14.00">{weight | data=0.6152 | grad=0.1608}</text>
</g>
<!-- 1559703931600&#45;&gt;1559702998144* -->
<g id="edge23" class="edge">
<title>1559703931600&#45;&gt;1559702998144*</title>
<path fill="none" stroke="black" d="M310.89,-46.5C320.81,-46.5 329.96,-46.5 337.87,-46.5"/>
<polygon fill="black" stroke="black" points="337.68,-50 347.68,-46.5 337.68,-43 337.68,-50"/>
</g>
<!-- 1559703038880 -->
<g id="node22" class="node">
<title>1559703038880</title>
<polygon fill="white" stroke="black" points="851.53,-273.5 851.53,-309.5 1068.28,-309.5 1068.28,-273.5 851.53,-273.5"/>
<text text-anchor="middle" x="874.9" y="-286.7" font-family="Times New Roman,serif" font-size="14.00">Value</text>
<polyline fill="none" stroke="black" points="898.28,-274 898.28,-309.5"/>
<text text-anchor="middle" x="940.4" y="-286.7" font-family="Times New Roman,serif" font-size="14.00">data=1.1397</text>
<polyline fill="none" stroke="black" points="982.53,-274 982.53,-309.5"/>
<text text-anchor="middle" x="1025.4" y="-286.7" font-family="Times New Roman,serif" font-size="14.00">grad=0.2955</text>
</g>
<!-- 1559703038880&#45;&gt;1559703919088+ -->
<g id="edge30" class="edge">
<title>1559703038880&#45;&gt;1559703919088+</title>
<path fill="none" stroke="black" d="M1045.05,-273.02C1053.75,-270.44 1062.38,-267.6 1070.53,-264.5 1080.07,-260.87 1090.08,-255.91 1098.8,-251.17"/>
<polygon fill="black" stroke="black" points="1100.37,-254.31 1107.36,-246.35 1096.93,-248.21 1100.37,-254.31"/>
</g>
<!-- 1559703038880*&#45;&gt;1559703038880 -->
<g id="edge8" class="edge">
<title>1559703038880*&#45;&gt;1559703038880</title>
<path fill="none" stroke="black" d="M813.68,-291.5C820.9,-291.5 829.94,-291.5 839.95,-291.5"/>
<polygon fill="black" stroke="black" points="839.65,-295 849.65,-291.5 839.65,-288 839.65,-295"/>
</g>
<!-- 1559702998144 -->
<g id="node24" class="node">
<title>1559702998144</title>
<polygon fill="white" stroke="black" points="473.05,-0.5 473.05,-36.5 689.8,-36.5 689.8,-0.5 473.05,-0.5"/>
<text text-anchor="middle" x="496.42" y="-13.7" font-family="Times New Roman,serif" font-size="14.00">Value</text>
<polyline fill="none" stroke="black" points="519.8,-1 519.8,-36.5"/>
<text text-anchor="middle" x="561.92" y="-13.7" font-family="Times New Roman,serif" font-size="14.00">data=0.6152</text>
<polyline fill="none" stroke="black" points="604.05,-1 604.05,-36.5"/>
<text text-anchor="middle" x="646.92" y="-13.7" font-family="Times New Roman,serif" font-size="14.00">grad=0.1608</text>
</g>
<!-- 1559703398320+ -->
<g id="node36" class="node">
<title>1559703398320+</title>
<ellipse fill="none" stroke="black" cx="795.28" cy="-73.5" rx="18" ry="18"/>
<text text-anchor="middle" x="795.28" y="-68.45" font-family="Times New Roman,serif" font-size="14.00">+</text>
</g>
<!-- 1559702998144&#45;&gt;1559703398320+ -->
<g id="edge35" class="edge">
<title>1559702998144&#45;&gt;1559703398320+</title>
<path fill="none" stroke="black" d="M689.89,-32.97C707.29,-36.58 724.94,-41.04 741.28,-46.5 750.89,-49.71 760.91,-54.43 769.63,-59.02"/>
<polygon fill="black" stroke="black" points="767.72,-61.97 778.16,-63.73 771.1,-55.84 767.72,-61.97"/>
</g>
<!-- 1559702998144*&#45;&gt;1559702998144 -->
<g id="edge9" class="edge">
<title>1559702998144*&#45;&gt;1559702998144</title>
<path fill="none" stroke="black" d="M385.9,-44.21C403.33,-41.91 431.83,-38.14 461.7,-34.19"/>
<polygon fill="black" stroke="black" points="461.8,-37.71 471.25,-32.93 460.88,-30.77 461.8,-37.71"/>
</g>
<!-- 1559703323856 -->
<g id="node26" class="node">
<title>1559703323856</title>
<polygon fill="white" stroke="black" points="1984.68,-109.5 1984.68,-145.5 2201.43,-145.5 2201.43,-109.5 1984.68,-109.5"/>
<text text-anchor="middle" x="2008.06" y="-122.7" font-family="Times New Roman,serif" font-size="14.00">Value</text>
<polyline fill="none" stroke="black" points="2031.43,-110 2031.43,-145.5"/>
<text text-anchor="middle" x="2073.56" y="-122.7" font-family="Times New Roman,serif" font-size="14.00">data=0.3901</text>
<polyline fill="none" stroke="black" points="2115.68,-110 2115.68,-145.5"/>
<text text-anchor="middle" x="2158.56" y="-122.7" font-family="Times New Roman,serif" font-size="14.00">grad=1.0000</text>
</g>
<!-- 1559703971792+ -->
<g id="node38" class="node">
<title>1559703971792+</title>
<ellipse fill="none" stroke="black" cx="2380.91" cy="-181.5" rx="18" ry="18"/>
<text text-anchor="middle" x="2380.91" y="-176.45" font-family="Times New Roman,serif" font-size="14.00">+</text>
</g>
<!-- 1559703323856&#45;&gt;1559703971792+ -->
<g id="edge25" class="edge">
<title>1559703323856&#45;&gt;1559703971792+</title>
<path fill="none" stroke="black" d="M2191.63,-145.93C2248.11,-156.6 2315.13,-169.26 2352.04,-176.24"/>
<polygon fill="black" stroke="black" points="2350.95,-179.59 2361.43,-178.01 2352.25,-172.71 2350.95,-179.59"/>
</g>
<!-- 1559703323856*&#45;&gt;1559703323856 -->
<g id="edge10" class="edge">
<title>1559703323856*&#45;&gt;1559703323856</title>
<path fill="none" stroke="black" d="M1913.93,-127.5C1928.14,-127.5 1949.63,-127.5 1972.82,-127.5"/>
<polygon fill="black" stroke="black" points="1972.8,-131 1982.8,-127.5 1972.8,-124 1972.8,-131"/>
</g>
<!-- 1559703997968 -->
<g id="node28" class="node">
<title>1559703997968</title>
<ellipse fill="lightblue" stroke="black" cx="581.42" cy="-127.5" rx="159.85" ry="18"/>
<text text-anchor="middle" x="581.42" y="-122.45" font-family="Times New Roman,serif" font-size="14.00">{weight | data=&#45;0.9052 | grad=&#45;0.3216}</text>
</g>
<!-- 1559703997968&#45;&gt;1559703398768* -->
<g id="edge28" class="edge">
<title>1559703997968&#45;&gt;1559703398768*</title>
<path fill="none" stroke="black" d="M741.64,-128.25C750.46,-128.29 758.61,-128.33 765.73,-128.37"/>
<polygon fill="black" stroke="black" points="765.5,-131.86 775.52,-128.41 765.53,-124.86 765.5,-131.86"/>
</g>
<!-- 1559703918128 -->
<g id="node29" class="node">
<title>1559703918128</title>
<polygon fill="white" stroke="black" points="1579.49,-218.5 1579.49,-254.5 1796.24,-254.5 1796.24,-218.5 1579.49,-218.5"/>
<text text-anchor="middle" x="1602.87" y="-231.7" font-family="Times New Roman,serif" font-size="14.00">Value</text>
<polyline fill="none" stroke="black" points="1626.24,-219 1626.24,-254.5"/>
<text text-anchor="middle" x="1668.37" y="-231.7" font-family="Times New Roman,serif" font-size="14.00">data=0.6880</text>
<polyline fill="none" stroke="black" points="1710.49,-219 1710.49,-254.5"/>
<text text-anchor="middle" x="1753.37" y="-231.7" font-family="Times New Roman,serif" font-size="14.00">grad=0.2955</text>
</g>
<!-- 1559703918128&#45;&gt;1559703971920* -->
<g id="edge21" class="edge">
<title>1559703918128&#45;&gt;1559703971920*</title>
<path fill="none" stroke="black" d="M1796.54,-236.5C1822.26,-236.5 1847.57,-236.5 1866.03,-236.5"/>
<polygon fill="black" stroke="black" points="1865.86,-240 1875.86,-236.5 1865.86,-233 1865.86,-240"/>
</g>
<!-- 1559703918128ReLU&#45;&gt;1559703918128 -->
<g id="edge11" class="edge">
<title>1559703918128ReLU&#45;&gt;1559703918128</title>
<path fill="none" stroke="black" d="M1498.35,-236.5C1517.19,-236.5 1542.17,-236.5 1567.76,-236.5"/>
<polygon fill="black" stroke="black" points="1567.63,-240 1577.63,-236.5 1567.63,-233 1567.63,-240"/>
</g>
<!-- 1559703998288 -->
<g id="node31" class="node">
<title>1559703998288</title>
<ellipse fill="pink" stroke="black" cx="581.42" cy="-73.5" rx="143.48" ry="18"/>
<text text-anchor="middle" x="581.42" y="-68.45" font-family="Times New Roman,serif" font-size="14.00">{bias | data=0.0000 | grad=0.1608}</text>
</g>
<!-- 1559703998288&#45;&gt;1559703398320+ -->
<g id="edge32" class="edge">
<title>1559703998288&#45;&gt;1559703398320+</title>
<path fill="none" stroke="black" d="M725.2,-73.5C740.32,-73.5 754.29,-73.5 765.66,-73.5"/>
<polygon fill="black" stroke="black" points="765.39,-77 775.39,-73.5 765.39,-70 765.39,-77"/>
</g>
<!-- 1559703279440 -->
<g id="node32" class="node">
<title>1559703279440</title>
<ellipse fill="pink" stroke="black" cx="2093.06" cy="-182.5" rx="143.48" ry="18"/>
<text text-anchor="middle" x="2093.06" y="-177.45" font-family="Times New Roman,serif" font-size="14.00">{bias | data=0.0000 | grad=1.0000}</text>
</g>
<!-- 1559703279440&#45;&gt;1559703971792+ -->
<g id="edge29" class="edge">
<title>1559703279440&#45;&gt;1559703971792+</title>
<path fill="none" stroke="black" d="M2236.56,-182C2280.22,-181.85 2323.93,-181.7 2351.4,-181.6"/>
<polygon fill="black" stroke="black" points="2351.32,-185.1 2361.31,-181.57 2351.29,-178.1 2351.32,-185.1"/>
</g>
<!-- 1559688849280 -->
<g id="node33" class="node">
<title>1559688849280</title>
<polygon fill="white" stroke="black" points="849.28,-218.5 849.28,-254.5 1070.53,-254.5 1070.53,-218.5 849.28,-218.5"/>
<text text-anchor="middle" x="872.65" y="-231.7" font-family="Times New Roman,serif" font-size="14.00">Value</text>
<polyline fill="none" stroke="black" points="896.03,-219 896.03,-254.5"/>
<text text-anchor="middle" x="940.4" y="-231.7" font-family="Times New Roman,serif" font-size="14.00">data=&#45;0.4517</text>
<polyline fill="none" stroke="black" points="984.78,-219 984.78,-254.5"/>
<text text-anchor="middle" x="1027.65" y="-231.7" font-family="Times New Roman,serif" font-size="14.00">grad=0.2955</text>
</g>
<!-- 1559688849280&#45;&gt;1559703919088+ -->
<g id="edge40" class="edge">
<title>1559688849280&#45;&gt;1559703919088+</title>
<path fill="none" stroke="black" d="M1070.73,-236.5C1079.39,-236.5 1087.56,-236.5 1094.77,-236.5"/>
<polygon fill="black" stroke="black" points="1094.74,-240 1104.74,-236.5 1094.74,-233 1094.74,-240"/>
</g>
<!-- 1559688849280+&#45;&gt;1559688849280 -->
<g id="edge12" class="edge">
<title>1559688849280+&#45;&gt;1559688849280</title>
<path fill="none" stroke="black" d="M813.68,-236.5C820.32,-236.5 828.5,-236.5 837.56,-236.5"/>
<polygon fill="black" stroke="black" points="837.49,-240 847.49,-236.5 837.49,-233 837.49,-240"/>
</g>
<!-- 1559703398320 -->
<g id="node35" class="node">
<title>1559703398320</title>
<polygon fill="white" stroke="black" points="851.53,-55.5 851.53,-91.5 1068.28,-91.5 1068.28,-55.5 851.53,-55.5"/>
<text text-anchor="middle" x="874.9" y="-68.7" font-family="Times New Roman,serif" font-size="14.00">Value</text>
<polyline fill="none" stroke="black" points="898.28,-56 898.28,-91.5"/>
<text text-anchor="middle" x="940.4" y="-68.7" font-family="Times New Roman,serif" font-size="14.00">data=0.6152</text>
<polyline fill="none" stroke="black" points="982.53,-56 982.53,-91.5"/>
<text text-anchor="middle" x="1025.4" y="-68.7" font-family="Times New Roman,serif" font-size="14.00">grad=0.1608</text>
</g>
<!-- 1559703398320&#45;&gt;1559703710352+ -->
<g id="edge31" class="edge">
<title>1559703398320&#45;&gt;1559703710352+</title>
<path fill="none" stroke="black" d="M1041.76,-91.98C1051.56,-94.85 1061.34,-98.03 1070.53,-101.5 1080.01,-105.07 1090,-109.88 1098.73,-114.44"/>
<polygon fill="black" stroke="black" points="1096.83,-117.39 1107.29,-119.06 1100.16,-111.23 1096.83,-117.39"/>
</g>
<!-- 1559703398320+&#45;&gt;1559703398320 -->
<g id="edge13" class="edge">
<title>1559703398320+&#45;&gt;1559703398320</title>
<path fill="none" stroke="black" d="M813.68,-73.5C820.9,-73.5 829.94,-73.5 839.95,-73.5"/>
<polygon fill="black" stroke="black" points="839.65,-77 849.65,-73.5 839.65,-70 839.65,-77"/>
</g>
<!-- 1559703971792 -->
<g id="node37" class="node">
<title>1559703971792</title>
<polygon fill="white" stroke="black" points="2525.28,-167.5 2525.28,-203.5 2742.03,-203.5 2742.03,-167.5 2525.28,-167.5"/>
<text text-anchor="middle" x="2548.66" y="-180.7" font-family="Times New Roman,serif" font-size="14.00">Value</text>
<polyline fill="none" stroke="black" points="2572.03,-168 2572.03,-203.5"/>
<text text-anchor="middle" x="2614.16" y="-180.7" font-family="Times New Roman,serif" font-size="14.00">data=0.3901</text>
<polyline fill="none" stroke="black" points="2656.28,-168 2656.28,-203.5"/>
<text text-anchor="middle" x="2699.16" y="-180.7" font-family="Times New Roman,serif" font-size="14.00">grad=1.0000</text>
</g>
<!-- 1559703971792&#45;&gt;1559703972048+ -->
<g id="edge34" class="edge">
<title>1559703971792&#45;&gt;1559703972048+</title>
<path fill="none" stroke="black" d="M2742.52,-200.97C2751.23,-202.22 2759.45,-203.4 2766.68,-204.43"/>
<polygon fill="black" stroke="black" points="2765.94,-207.86 2776.33,-205.82 2766.93,-200.93 2765.94,-207.86"/>
</g>
<!-- 1559703971792+&#45;&gt;1559703971792 -->
<g id="edge14" class="edge">
<title>1559703971792+&#45;&gt;1559703971792</title>
<path fill="none" stroke="black" d="M2399.14,-181.77C2423.22,-182.16 2468.99,-182.89 2513.69,-183.6"/>
<polygon fill="black" stroke="black" points="2513.44,-187.1 2523.5,-183.76 2513.55,-180.1 2513.44,-187.1"/>
</g>
<!-- 1559702116336 -->
<g id="node39" class="node">
<title>1559702116336</title>
<ellipse fill="pink" stroke="black" cx="581.42" cy="-237.5" rx="143.48" ry="18"/>
<text text-anchor="middle" x="581.42" y="-232.45" font-family="Times New Roman,serif" font-size="14.00">{bias | data=0.0000 | grad=0.2955}</text>
</g>
<!-- 1559702116336&#45;&gt;1559688849280+ -->
<g id="edge16" class="edge">
<title>1559702116336&#45;&gt;1559688849280+</title>
<path fill="none" stroke="black" d="M725.2,-236.83C740.32,-236.75 754.29,-236.69 765.66,-236.64"/>
<polygon fill="black" stroke="black" points="765.4,-240.14 775.39,-236.59 765.37,-233.14 765.4,-240.14"/>
</g>
</g>
</svg>
